:SAMPLES-PER-SECOND 30
:FULLY-SPECIFIED
:DEGREES
293
root  34.85644784 36.58063693 -14.12558068 10.12516785 -2.088414907 3.573714018
lowerback  -7.943910599 0.3310140073 -0.556594193
upperback  -4.112919807 1.048269987 -4.446579933
thorax  0.2729820013 0.7145069838 -4.203760147
lowerneck  -13.3895998 -7.024300098 -4.518780231
upperneck  14.91489983 -10.42199898 7.740509987
head  7.438379765 -4.74119997 2.116940022
lclavicle  0 -4.497500157e-015 -2.743230041e-014
lhumerus  -47.84880066 30.14370155 61.73239899
lradius  -0.03417590633 -6.507048965e-006 29.35680008
lwrist  3.192251654e-007 -3.790274832e-007 -29.13299942
lhand  -4.385901518e-031 -36.37929916 -10.68710041
lfingers  90 7.125020027 -90
lthumb  94.57459891 -25.540752 100.5131587
rclavicle  0 -4.497500157e-015 -2.743230041e-014
rhumerus  -7.580550671 -23.27669716 -34.16120148
rradius  -5.16745672e-007 2.214343908e-008 106.1490021
rwrist  0.0006954420824 -0.004670973402 173.845993
rhand  -1.770005545e-031 4.060510159 -5.005809784
rfingers  -90 -7.125020027 -90
rthumb  -83.87027243 -10.69916081 -59.9519694
rfemur  -10.82797241 14.31776333 12.65183163
rtibia  -0.04450717941 -0.9303172827 17.71345711
rfoot  1.346833467 -21.07277489 -36.51045227
rtoes  3.863158045 19.63836137 -101.3608614
lfemur  -4.237975597 -16.99476242 -22.2746315
ltibia  6.821974754 0.1437503397 7.371854782
lfoot  0.4448950589 -22.38679886 35.30301666
ltoes  -8.568016355 -18.14006871 -115.8233677
294
root  34.85470269 36.57873259 -14.1277914 10.0974369 -2.060514688 3.572099209
lowerback  -7.957950592 0.3119199872 -0.561090529
upperback  -4.093200207 1.02007997 -4.418059826
thorax  0.2987180054 0.6993709803 -4.173279762
lowerneck  -13.44180012 -6.960519791 -4.52162981
upperneck  14.9701004 -10.34420013 7.76718998
head  7.46216011 -4.699840069 2.132960081
lclavicle  0 -4.497500157e-015 -2.743230041e-014
lhumerus  -47.97539902 30.12059975 61.82690048
lradius  -0.03581570834 -6.507048965e-006 29.54860115
lwrist  3.192251654e-007 -3.790274832e-007 -28.99670029
lhand  -0 -36.34569931 -10.66759968
lfingers  90 7.125020027 -90
lthumb  94.55495844 -25.52278053 100.4755595
rclavicle  0 -4.497500157e-015 -2.743230041e-014
rhumerus  -9.310750961 -23.1359005 -34.06370163
rradius  -5.16745672e-007 2.214343908e-008 107.2969971
rwrist  0.0006954420824 -0.004670973402 173.7689972
rhand  -0 3.965660095 -4.691810131
rfingers  -90 -7.125020027 -90
rthumb  -83.73572903 -10.96697402 -60.01514695
rfemur  -10.81999588 14.30147266 12.67623997
rtibia  -0.05947639421 -0.8959390521 17.75617981
rfoot  1.331335187 -21.0248909 -36.51293182
rtoes  3.873909414 19.63632385 -101.3928533
lfemur  -4.048419952 -16.91243362 -22.34080124
ltibia  6.955716133 0.1804793626 7.08795929
lfoot  0.4281812906 -22.36592293 35.27757645
ltoes  -8.568534786 -18.13983029 -115.8250329
295
root  34.85350721 36.57699345 -14.13214526 10.07742691 -2.047829628 3.575395346
lowerback  -7.987979889 0.3013169467 -0.572388649
upperback  -4.067780018 1.004169941 -4.389800072
thorax  0.3399620056 0.6905210018 -4.137979984
lowerneck  -13.52400017 -6.878950119 -4.490099907
upperneck  15.08469963 -10.23260021 7.698589802
head  7.501100063 -4.645400047 2.115560055
lclavicle  0 -4.497500157e-015 -2.743230041e-014
lhumerus  -47.93299866 30.20709991 61.85620117
lradius  -0.03745228052 -6.507048965e-006 29.53910065
lwrist  3.192251654e-007 -3.790274832e-007 -28.97820091
lhand  -0 -36.36439896 -10.68900013
lfingers  90 7.125020027 -90
lthumb  94.56799749 -25.54317948 100.497352
rclavicle  0 -4.497500157e-015 -2.743230041e-014
rhumerus  -11.0770998 -23.06850052 -34.09999847
rradius  -5.16745672e-007 2.214343908e-008 108.4300003
rwrist  0.0006954420824 -0.004670973402 173.6239929
rhand  -1.770405193e-031 4.238800049 -4.954619884
rfingers  -90 -7.125020027 -90
rthumb  -83.79667712 -10.75118695 -59.77201385
rfemur  -10.8259449 14.33292294 12.68451881
rtibia  -0.07469578832 -0.8803129792 17.8015995
rfoot  1.297109246 -21.01493263 -36.56948853
rtoes  3.868747281 19.63730288 -101.3774924
lfemur  -3.8951056 -16.87790108 -22.40588379
ltibia  7.064070702 0.1807202697 6.861340046
lfoot  0.4084640145 -22.28360176 35.26869583
ltoes  -8.552365118 -18.14725805 -115.7731069
296
root  34.85120037 36.57631461 -14.13502731 10.06098175 -2.028933048 3.557613134
lowerback  -8.021120071 0.2870340049 -0.5874080062
upperback  -4.029510021 0.9842600226 -4.373899937
thorax  0.3961090147 0.6797500253 -4.113689899
lowerneck  -13.61629963 -6.772799969 -4.396989822
upperneck  15.14179993 -10.08909988 7.616600037
head  7.51722002 -4.573709965 2.088279963
lclavicle  0 -4.497500157e-015 -2.743230041e-014
lhumerus  -47.88600159 30.33810043 61.84830093
lradius  -0.03908242658 -6.507048965e-006 29.52760124
lwrist  3.192251654e-007 -3.790274832e-007 -29.03429985
lhand  -4.387430788e-031 -36.40639877 -10.70549965
lfingers  90 7.125020027 -90
lthumb  94.59101029 -25.55793571 100.5437188
rclavicle  0 -4.497500157e-015 -2.743230041e-014
rhumerus  -12.82149982 -23.02550125 -34.13669968
rradius  -5.16745672e-007 2.214343908e-008 109.4410019
rwrist  0.0006954420824 -0.004670973402 173.4869995
rhand  -1.770594492e-031 4.320660114 -4.783820152
rfingers  -90 -7.125020027 -90
rthumb  -83.68702182 -10.90218098 -59.67516333
rfemur  -10.81529617 14.36533356 12.71286964
rtibia  -0.07438962162 -0.8605261445 17.8029213
rfoot  1.297563434 -20.99118423 -36.59601212
rtoes  3.877184092 19.63570209 -101.4025981
lfemur  -3.955229521 -16.90489006 -22.35275841
ltibia  6.997753143 0.1815564632 6.992030144
lfoot  0.4147793055 -22.32900429 35.28215027
ltoes  -8.582397224 -18.13344845 -115.8695659
297
root  34.84744275 36.57643776 -14.13757595 10.03018093 -2.001638889 3.564056396
lowerback  -8.081789017 0.2675850391 -0.5824154019
upperback  -3.989480019 0.9556530118 -4.342559814
thorax  0.4687219858 0.6641259789 -4.085120201
lowerneck  -13.68540001 -6.683740139 -4.314099789
upperneck  15.19229984 -9.965129852 7.524020195
head  7.528540134 -4.513549805 2.057670116
lclavicle  0 -4.497500157e-015 -2.743230041e-014
lhumerus  -47.87969971 30.37199974 61.91149902
lradius  -0.04070293531 -6.507048965e-006 29.59300041
lwrist  3.192251654e-007 -3.790274832e-007 -28.94130135
lhand  -0 -36.44319916 -10.77050018
lfingers  90 7.125020027 -90
lthumb  94.6215456 -25.62064896 100.5888757
rclavicle  0 -4.497500157e-015 -2.743230041e-014
rhumerus  -14.52999973 -22.95159912 -34.20019913
rradius  -5.16745672e-007 2.214343908e-008 110.3679962
rwrist  0.0006954420824 -0.004670973402 173.1649933
rhand  -1.772387816e-031 5.02989006 -5.258230209
rfingers  -90 -7.125020027 -90
rthumb  -83.74212933 -10.52569683 -59.024498
rfemur  -10.78780556 14.37401009 12.72778034
rtibia  -0.07526101172 -0.8545511961 17.81758881
rfoot  1.282817483 -20.98769951 -36.6393013
rtoes  3.889286348 19.63339947 -101.4386146
lfemur  -3.856443405 -16.92704582 -22.39104271
ltibia  7.054944038 0.1692890823 6.875531197
lfoot  0.3975264132 -22.26513863 35.27148056
ltoes  -8.578511328 -18.13523869 -115.857081
298
root  34.84476044 36.579063 -14.14071331 9.993040085 -1.978068471 3.557586432
lowerback  -8.139849663 0.2526240051 -0.5802559853
upperback  -3.958920002 0.934180975 -4.31580019
thorax  0.5306059718 0.6525070071 -4.05934
lowerneck  -13.81910038 -6.618569851 -4.377270222
upperneck  15.35219955 -9.898170471 7.620019913
head  7.608719826 -4.472080231 2.100909948
lclavicle  0 -4.497500157e-015 -2.743230041e-014
lhumerus  -47.87990189 30.47369766 61.92419815
lradius  -0.04231062159 -6.507048965e-006 29.62779999
lwrist  3.192251654e-007 -3.790274832e-007 -28.93969917
lhand  -4.396359462e-031 -36.56389999 -10.77190018
lfingers  90 7.125020027 -90
lthumb  94.67855814 -25.61779664 100.7181474
rclavicle  0 -4.497500157e-015 -2.743230041e-014
rhumerus  -16.27400017 -22.86730003 -34.27190018
rradius  -5.16745672e-007 2.214343908e-008 111.2919998
rwrist  0.0006954420824 -0.004670973402 172.9030151
rhand  -0 4.728330135 -5.285369873
rfingers  -90 -7.125020027 -90
rthumb  -83.83681797 -10.48820629 -59.32298153
rfemur  -10.73349857 14.36619663 12.75459194
rtibia  -0.07663659751 -0.8465612531 17.7928791
rfoot  1.296586275 -20.97322655 -36.64503098
rtoes  3.900425752 19.63127342 -101.4717692
lfemur  -3.839112759 -16.91491318 -22.38109779
ltibia  7.037219048 0.1687963009 6.911501408
lfoot  0.3914619088 -22.28970909 35.23065186
ltoes  -8.55589799 -18.14563667 -115.7844504
299
root  34.8438293 36.5809313 -14.1435458 9.952084541 -1.963988662 3.545194149
lowerback  -8.197149277 0.2307940125 -0.5950924754
upperback  -3.927249908 0.9047240019 -4.286610126
thorax  0.5924940109 0.6370930076 -4.022119999
lowerneck  -13.89620018 -6.54843998 -4.350389957
upperneck  15.37689972 -9.814239502 7.652290344
head  7.625529766 -4.425280094 2.114660025
lclavicle  0 -4.497500157e-015 -2.743230041e-014
lhumerus  -47.8844986 30.56400108 61.94729996
lradius  -0.04388408363 -6.507048965e-006 29.66740036
lwrist  3.192251654e-007 -3.790274832e-007 -28.91340065
lhand  -4.406895947e-031 -36.74819946 -10.74100018
lfingers  90 7.125020027 -90
lthumb  94.7587523 -25.58097149 100.9126007
rclavicle  0 -4.497500157e-015 -2.743230041e-014
rhumerus  -18.00769997 -22.74110031 -34.38230133
rradius  -5.16745672e-007 2.214343908e-008 112.2109985
rwrist  0.0006954420824 -0.004670973402 172.678009
rhand  -1.77122276e-031 4.581779957 -4.886229992
rfingers  -90 -7.125020027 -90
rthumb  -83.6692091 -10.82508568 -59.42855957
rfemur  -10.67452908 14.37729645 12.77673244
rtibia  -0.07826510072 -0.8204580545 17.75818062
rfoot  1.306477666 -20.91965294 -36.6830864
rtoes  3.900746133 19.63121218 -101.4727228
lfemur  -3.899260044 -16.91243935 -22.33467293
ltibia  6.952396393 0.1711805165 7.083631039
lfoot  0.3944888115 -22.3727417 35.19656754
ltoes  -8.541473009 -18.15225164 -115.7381405
